<svg xmlns="http://www.w3.org/2000/svg" viewBox="0 0 841.22 656.2"><defs><style>.cls-1{fill:#51445f;}.cls-2{fill:#f9495f;}</style></defs><title>Fichier 1</title><g id="Calque_2" data-name="Calque 2"><g id="Layer_1" data-name="Layer 1"><path class="cls-1" d="M208.8,270.4c0-21.2-13.6-20.4-13.6-20.4H140v44h51.6C200.8,294,208.8,291.6,208.8,270.4Z"/><path class="cls-1" d="M195.2,326H140v56h52c8,0,23.2-3.2,23.2-27.2C215.6,326.4,195.2,326,195.2,326Z"/><path class="cls-1" d="M377.6,66H126.4C56.8,66,0,122.8,0,192.4V444c0,69.2,56.8,126,126.4,126H378c69.6,0,126.4-56.8,126.4-126.4V192.4C504,122.8,447.2,66,377.6,66ZM296,226h84v20H296ZM256.8,357.6c0,62.4-61.6,64.4-61.6,64.4H96V214h98.8c30.8,0,55.2,17.6,55.2,54.4s-29.6,38.8-29.6,38.8C259.6,306.8,256.8,357.6,256.8,357.6ZM407.6,354H306.4c0,40,34.4,36.8,34.4,36.8,32.4,0,31.2-20.8,31.2-20.8h34.4c0,56-66.8,53.6-66.8,53.6-80,0-74.8-78.8-74.8-78.8s0-79.2,74.8-79.2C418.4,265.2,407.6,354,407.6,354Z"/><path class="cls-1" d="M340.4,294.4c-30,0-34.4,31.6-34.4,31.6h64S370.4,294.4,340.4,294.4Z"/><path class="cls-2" d="M545.62,356.6c0-21.2-13.6-20.4-13.6-20.4h-55.2v44h51.6C537.62,380.2,545.62,377.8,545.62,356.6Z"/><path class="cls-2" d="M532,412.2h-55.2v56h52c8,0,23.2-3.2,23.2-27.2C552.42,412.6,532,412.2,532,412.2Z"/><path class="cls-2" d="M714.42,152.2H463.22c-69.6,0-126.4,56.8-126.4,126.4V530.2c0,69.2,56.8,126,126.4,126h251.6c69.6,0,126.4-56.8,126.4-126.4V278.6C840.82,209,784,152.2,714.42,152.2Zm-81.6,160h84v20h-84Zm-39.2,131.6c0,62.4-61.6,64.4-61.6,64.4h-99.2v-208h98.8c30.8,0,55.2,17.6,55.2,54.4s-29.6,38.8-29.6,38.8C596.42,393,593.62,443.8,593.62,443.8Zm150.8-3.6H643.22c0,40,34.4,36.8,34.4,36.8,32.4,0,31.2-20.8,31.2-20.8h34.4c0,56-66.8,53.6-66.8,53.6-80,0-74.8-78.8-74.8-78.8s0-79.2,74.8-79.2C755.22,351.4,744.42,440.2,744.42,440.2Z"/><path class="cls-2" d="M677.22,380.6c-30,0-34.4,31.6-34.4,31.6h64S707.22,380.6,677.22,380.6Z"/><path d="M389.72,204.4c0-21.2-13.6-20.4-13.6-20.4h-55.2v44h51.6C381.72,228,389.72,225.6,389.72,204.4Z"/><path d="M376.12,260h-55.2v56h52c8,0,23.2-3.2,23.2-27.2C396.52,260.4,376.12,260,376.12,260Z"/><path d="M558.52,0H307.32c-69.6,0-126.4,56.8-126.4,126.4V378c0,69.2,56.8,126,126.4,126h251.6c69.6,0,126.4-56.8,126.4-126.4V126.4C684.92,56.8,628.12,0,558.52,0Zm-81.6,160h84v20h-84Zm-39.2,131.6c0,62.4-61.6,64.4-61.6,64.4h-99.2V148h98.8c30.8,0,55.2,17.6,55.2,54.4s-29.6,38.8-29.6,38.8C440.52,240.8,437.72,291.6,437.72,291.6Zm150.8-3.6H487.32c0,40,34.4,36.8,34.4,36.8,32.4,0,31.2-20.8,31.2-20.8h34.4c0,56-66.8,53.6-66.8,53.6-80,0-74.8-78.8-74.8-78.8s0-79.2,74.8-79.2C599.32,199.2,588.52,288,588.52,288Z"/><path d="M521.32,228.4c-30,0-34.4,31.6-34.4,31.6h64S551.32,228.4,521.32,228.4Z"/></g></g></svg>