<svg xmlns="http://www.w3.org/2000/svg" viewBox="0 0 373.67 373.67"><defs><style>.cls-1{fill:none;stroke:#1d1d1b;stroke-miterlimit:10;stroke-width:7px;}.cls-2{fill:#1d1d1b;}</style></defs><title>Logo Maurine</title><g id="Calque_3" data-name="Calque 3"><circle class="cls-1" cx="186.83" cy="186.83" r="183.33"/><path class="cls-2" d="M406.34,586.65l23.27-213h-7.5c-2.51,45.93,21.29,87.27,53.21,118.58a3.81,3.81,0,0,0,5.89-.76q39.42-64.09,78.85-128.17l-7-1.89q-1.1,104-2.18,208.06l-.62,58.73a3.79,3.79,0,0,0,6.4,2.65l8.34-8.68c3.35-3.48-2-8.79-5.3-5.3l-8.34,8.68,6.4,2.65q1.1-104,2.18-208.06l.62-58.73c0-3.79-5.07-5-7-1.89q-39.42,64.08-78.85,128.16l5.89-.76c-30.59-30-53.41-69.24-51-113.27.26-4.9-7-4.7-7.5,0l-23.27,213c-.52,4.79,7,4.75,7.5,0Z" transform="translate(-325.17 -325.17)"/><path class="cls-2" d="M562.39,644.29c4.49-3.12,11-2.47,13.58,2.84,1.16,2.42,1.33,5.51-.31,7.67s-5.84,3.7-8.3,1.59c-3.34-2.86-1.24-8.56,1.51-10.93,3.7-3.19,9-4,13.68-4.82,3.16-.56,1.82-5.38-1.33-4.82-7.88,1.41-17.55,3.84-20,12.64-2,7.11,2.4,14.78,10.42,13.83,8.47-1,12.19-9.15,9.05-16.68C577.3,637.4,567,635,559.86,640c-2.62,1.82-.13,6.16,2.53,4.32Z" transform="translate(-325.17 -325.17)"/></g></svg>