<svg id="Calque_1" data-name="Calque 1" xmlns="http://www.w3.org/2000/svg" viewBox="0 0 396.14 387.22"><defs><style>.cls-1,.cls-3,.cls-5{fill:none;stroke-miterlimit:10;stroke-width:7px;}.cls-1{stroke:#946393;}.cls-2{fill:#946393;}.cls-3{stroke:#e94b61;}.cls-4{fill:#e94b61;}.cls-5{stroke:#1d1d1b;}.cls-6{fill:#1d1d1b;}</style></defs><title>logo_home</title><circle class="cls-1" cx="186.83" cy="195.22" r="183.33"/><path class="cls-2" d="M481.11,550.12l23.26-213h-7.5c-2.5,45.93,21.3,87.28,53.22,118.58a3.79,3.79,0,0,0,5.89-.76q39.42-64.08,78.85-128.16l-7-1.89-2.19,208L625,591.67a3.79,3.79,0,0,0,6.4,2.65l8.34-8.68c3.34-3.48-1.95-8.79-5.3-5.3L626.13,589l6.41,2.65q1.08-104,2.18-208.06l.62-58.73c0-3.8-5.08-5-7-1.9L549.5,451.15l5.89-.76c-30.59-30-53.42-69.24-51-113.28.27-4.89-7-4.69-7.5,0l-23.26,213c-.53,4.8,7,4.76,7.5,0Z" transform="translate(-399.93 -280.26)"/><path class="cls-2" d="M637.15,607.77c4.49-3.12,11-2.48,13.58,2.83,1.17,2.43,1.34,5.51-.3,7.67s-5.84,3.71-8.3,1.6c-3.34-2.87-1.25-8.57,1.5-10.94,3.7-3.19,9-4,13.68-4.81,3.17-.57,1.83-5.39-1.33-4.82-7.87,1.4-17.54,3.84-20,12.63-2,7.12,2.4,14.78,10.42,13.84,8.47-1,12.19-9.15,9-16.68-3.43-8.22-13.72-10.59-20.86-5.64-2.63,1.82-.13,6.16,2.52,4.32Z" transform="translate(-399.93 -280.26)"/><circle class="cls-3" cx="209.31" cy="200.39" r="183.33"/><path class="cls-4" d="M503.58,555.29l23.27-213h-7.5c-2.51,45.93,21.29,87.27,53.21,118.58a3.79,3.79,0,0,0,5.89-.76L657.3,331.94l-7-1.9L648.12,538.1l-.61,58.74a3.79,3.79,0,0,0,6.4,2.65l8.34-8.68c3.35-3.48-2-8.79-5.3-5.31l-8.34,8.68,6.4,2.66q1.1-104,2.18-208.06l.62-58.74c0-3.79-5.07-5-7-1.89L572,456.32l5.89-.76c-30.59-30-53.41-69.24-51-113.28.26-4.89-7-4.7-7.5,0l-23.27,213c-.52,4.79,7,4.76,7.5,0Z" transform="translate(-399.93 -280.26)"/><path class="cls-4" d="M659.62,612.93c4.5-3.11,11-2.47,13.59,2.84,1.16,2.42,1.33,5.51-.31,7.67s-5.84,3.7-8.3,1.59c-3.34-2.86-1.24-8.56,1.51-10.93,3.7-3.19,9-4,13.68-4.81,3.16-.57,1.82-5.39-1.33-4.82-7.88,1.4-17.55,3.84-20,12.63-2,7.11,2.4,14.78,10.42,13.84,8.47-1,12.19-9.15,9.05-16.68-3.42-8.22-13.72-10.59-20.86-5.64-2.63,1.82-.13,6.15,2.52,4.31Z" transform="translate(-399.93 -280.26)"/><circle class="cls-5" cx="198.79" cy="186.83" r="183.33"/><path class="cls-6" d="M493.06,541.74l23.27-213h-7.5C506.33,374.66,530.12,416,562,447.31a3.8,3.8,0,0,0,5.89-.76q39.44-64.08,78.85-128.17l-7-1.89q-1.08,104-2.18,208.06L637,583.28a3.79,3.79,0,0,0,6.4,2.65l8.35-8.68c3.34-3.48-2-8.79-5.31-5.3l-8.34,8.68,6.4,2.65,2.19-208.06.61-58.73c0-3.79-5.07-5-7-1.89q-39.43,64.08-78.85,128.16l5.89-.76c-30.59-30-53.42-69.23-51-113.27.27-4.9-7-4.7-7.5,0l-23.27,213c-.52,4.79,7,4.75,7.5,0Z" transform="translate(-399.93 -280.26)"/><path class="cls-6" d="M649.11,599.38c4.49-3.11,11-2.47,13.58,2.84,1.17,2.42,1.33,5.51-.31,7.67s-5.84,3.7-8.3,1.59c-3.33-2.86-1.24-8.56,1.51-10.93,3.7-3.19,9-4,13.68-4.82,3.16-.56,1.82-5.38-1.33-4.82-7.87,1.41-17.54,3.84-20,12.64-2,7.11,2.4,14.78,10.41,13.83,8.48-1,12.2-9.15,9.06-16.68-3.43-8.21-13.73-10.59-20.87-5.64-2.62,1.82-.12,6.16,2.53,4.32Z" transform="translate(-399.93 -280.26)"/></svg>