<svg id="Layer_1" data-name="Layer 1" xmlns="http://www.w3.org/2000/svg" viewBox="0 0 858.24 676.46"><defs><style>.cls-1{fill:#936291;}.cls-2{fill:#f9495f;}</style></defs><title>pinterest_photo</title><path class="cls-1" d="M196.23,77.94H-55.37c-69.2,0-126,56.8-126,126.4v251.6c0,69.2,56.8,126,126,126h251.6c69.6,0,126.4-56.8,126.4-126.4V204.34C322.63,134.74,265.83,77.94,196.23,77.94Zm-100.4,322c-20,0-39.2-10.4-45.6-22.4,0,0-10.8,41.6-13.2,49.6-8,28.4-32,56.8-33.6,59.2a2.47,2.47,0,0,1-4.4-1.2c-.4-3.6-6.4-39.6.4-68.8,3.6-14.8,24-98.4,24-98.4s-6-11.6-6-28.4c0-26.8,16-46.8,36-46.8,16.8,0,25.2,12.4,25.2,27.2,0,16.4-10.8,41.2-16.4,64-4.8,19.2,10,34.8,29.6,34.8,35.2,0,59.2-44,59.2-96,0-39.6-27.6-69.2-77.6-69.2-56.4,0-92,40.8-92,86.4,0,15.6,4.8,26.8,12.4,35.6,3.6,4,4,5.6,2.8,10-.8,3.2-2.8,11.2-4,14.4-1.2,4.4-5.2,6.4-9.2,4.4-26-10.4-38-38-38-69.2,0-51.2,44.8-112.8,133.2-112.8,71.2,0,118,50,118,103.6C196.23,347.14,155.83,399.94,95.83,399.94Z" transform="translate(181.37)"/><path class="cls-2" d="M550.47,172.46H298.87c-69.2,0-126,56.8-126,126.4v251.6c0,69.2,56.8,126,126,126h251.6c69.6,0,126.4-56.8,126.4-126.4V298.86C676.87,229.26,620.07,172.46,550.47,172.46Zm-100.4,322c-20,0-39.2-10.4-45.6-22.4,0,0-10.8,41.6-13.2,49.6-8,28.4-32,56.8-33.6,59.2a2.47,2.47,0,0,1-4.4-1.2c-.4-3.6-6.4-39.6.4-68.8,3.6-14.8,24-98.4,24-98.4s-6-11.6-6-28.4c0-26.8,16-46.8,36-46.8,16.8,0,25.2,12.4,25.2,27.2,0,16.4-10.8,41.2-16.4,64-4.8,19.2,10,34.8,29.6,34.8,35.2,0,59.2-44,59.2-96,0-39.6-27.6-69.2-77.6-69.2-56.4,0-92,40.8-92,86.4,0,15.6,4.8,26.8,12.4,35.6,3.6,4,4,5.6,2.8,10-.8,3.2-2.8,11.2-4,14.4-1.2,4.4-5.2,6.4-9.2,4.4-26-10.4-38-38-38-69.2,0-51.2,44.8-112.8,133.2-112.8,71.2,0,118,50,118,103.6C550.47,441.66,510.07,494.46,450.07,494.46Z" transform="translate(181.37)"/><path d="M377.6,0H126C56.8,0,0,56.8,0,126.4V378c0,69.2,56.8,126,126,126H377.6C447.2,504,504,447.2,504,377.6V126.4C504,56.8,447.2,0,377.6,0ZM277.2,322c-20,0-39.2-10.4-45.6-22.4,0,0-10.8,41.6-13.2,49.6-8,28.4-32,56.8-33.6,59.2a2.47,2.47,0,0,1-4.4-1.2c-.4-3.6-6.4-39.6.4-68.8,3.6-14.8,24-98.4,24-98.4s-6-11.6-6-28.4c0-26.8,16-46.8,36-46.8,16.8,0,25.2,12.4,25.2,27.2,0,16.4-10.8,41.2-16.4,64-4.8,19.2,10,34.8,29.6,34.8,35.2,0,59.2-44,59.2-96,0-39.6-27.6-69.2-77.6-69.2-56.4,0-92,40.8-92,86.4,0,15.6,4.8,26.8,12.4,35.6,3.6,4,4,5.6,2.8,10-.8,3.2-2.8,11.2-4,14.4-1.2,4.4-5.2,6.4-9.2,4.4-26-10.4-38-38-38-69.2C126.8,156,171.6,94.4,260,94.4c71.2,0,118,50,118,103.6C377.6,269.2,337.2,322,277.2,322Z" transform="translate(181.37)"/></svg>