<?xml version="1.0" encoding="utf-8"?>
<!-- Generator: Adobe Illustrator 23.0.1, SVG Export Plug-In . SVG Version: 6.00 Build 0)  -->
<svg version="1.1" id="Calque_1" xmlns="http://www.w3.org/2000/svg" xmlns:xlink="http://www.w3.org/1999/xlink" x="0px" y="0px"
	 viewBox="0 0 24 30" style="enable-background:new 0 0 24 30;" xml:space="preserve">
<style type="text/css">
	.st0{fill:#F9495F;}
</style>
<title>youtube_stream_video</title>
<path class="st0" d="M18.2,4.5c-4.1-0.7-8.3-0.7-12.4,0C3.5,5,2,6.5,2,8.5v7c0,2,1.5,3.5,3.8,4c2,0.3,4.1,0.5,6.2,0.5
	c2.1,0,4.1-0.2,6.2-0.5c2.3-0.4,3.8-2,3.8-4v-7C22,6.5,20.5,4.9,18.2,4.5z M15.3,12.5l-5,3c-0.1,0-0.2,0.1-0.3,0.1
	c-0.1,0-0.2,0-0.3-0.1c-0.2-0.1-0.3-0.3-0.3-0.5V9c0-0.2,0.1-0.3,0.3-0.4c0.2-0.1,0.4-0.1,0.5,0l5,3c0.2,0.2,0.3,0.5,0.2,0.7
	C15.4,12.3,15.3,12.4,15.3,12.5L15.3,12.5z"/>
</svg>
