<svg id="Calque_1" data-name="Calque 1" xmlns="http://www.w3.org/2000/svg" viewBox="0 0 20 16.03"><defs><style>.cls-1{fill:#f5f4f5;}</style></defs><title>youtube_w</title><path class="cls-1" d="M16.2.53A36.87,36.87,0,0,0,3.8.53c-2.3.5-3.8,2-3.8,4v7c0,2,1.5,3.5,3.8,4A41.47,41.47,0,0,0,10,16a42.84,42.84,0,0,0,6.2-.5,4.18,4.18,0,0,0,3.8-4v-7A4.18,4.18,0,0,0,16.2.53Zm-2.9,8-5,3c-.1,0-.2.1-.3.1a.37.37,0,0,1-.3-.1.56.56,0,0,1-.3-.5V5c0-.2.1-.3.3-.4a.45.45,0,0,1,.5,0l5,3a.66.66,0,0,1,.2.7A.35.35,0,0,0,13.3,8.53Z" transform="translate(0 0)"/></svg>